<?xml version="1.0" encoding="utf-8"?><svg xmlns="http://www.w3.org/2000/svg" width="351" height="384" viewBox="0 0 351 384"><path fill="#eb8564" d="M276.735 177.87c18.716.144 20.916-18.994 16.947-40.943-3.435-18.997-17.759-94.171-115.585-127.35C64.86-28.832-20.548 55.899 4.343 113.116c20.977 48.22 59.462 51.198 84.868 50.969 25.098-.228 60.476-21.595 93.404-26.125 30.156-4.15 61.222 12.43 68.334 23.147 11.86 17.868 21.575 16.264 25.786 16.763z"/><path fill="#fcc972" d="M348.203 340.756c9.083 15.043-5.309 25.984-24.927 33.288-16.979 6.322-84.52 30.752-158.173-32.353-85.256-73.049-57.788-182.583.32-189.88 48.972-6.152 69.816 23.499 81.803 44.125 11.841 20.374 11.545 59.172 23.667 87.93 11.1 26.337 39.366 43.484 51.424 44.095 20.106 1.019 23.465 9.633 25.886 12.795z"/></svg>