<svg xmlns="http://www.w3.org/2000/svg" width="449" height="1122" viewBox="0 0 449 1122"><g><g><path fill="#2c5164" d="M425.674.11c21.953-.735 25.117 21.636 21.128 47.492-3.451 22.38-17.969 110.961-131.73 152.835-131.684 48.472-234.462-48.284-207-116.127 23.142-57.176 68.203-61.84 98.017-62.34 29.451-.494 71.607 23.485 110.377 27.795 35.505 3.947 71.448-16.434 79.466-29.214C409.302-.765 420.75.823 425.674.11z"/></g><g><path fill="#65bbe9" d="M22.868 429.3c-21.96.524-24.906-21.877-20.668-47.693 3.667-22.344 19.04-110.78 133.2-151.555 132.146-47.2 233.985 50.545 205.87 118.12-23.695 56.951-68.798 61.177-98.616 61.39-29.455.212-71.377-24.174-110.103-28.86-35.466-4.29-71.604 15.742-79.745 28.448-13.575 21.182-25.006 19.485-29.938 20.15z"/></g><g><path fill="#66bae8" d="M349.836 666.604c20.571-7.7 30.705 12.495 35.171 38.274 3.866 22.31 18.36 110.896-76.105 186.865C199.555 979.68 71.285 920.759 75.674 847.7c3.698-61.57 44.918-80.36 73.016-90.345 27.755-9.862 75.358-.58 113.477-8.858 34.911-7.583 62.476-38.363 65.999-53.036 5.874-24.464 17.23-26.61 21.67-28.857z"/></g><g><path fill="#ec8867" d="M88.862 409.232c4.687-21.458 27.15-19.019 51.231-8.793 20.842 8.851 103.13 44.716 115.731 165.28C270.41 705.279 151.34 781.09 92.335 737.78c-49.726-36.498-43.159-81.318-36.31-110.34 6.766-28.668 40.38-63.626 54.098-100.14 12.562-33.444 1.65-73.295-8.767-84.211-17.37-18.203-13.014-28.908-12.494-33.858z"/></g><g><path fill="#2c5164" d="M50.023 851.246c-17.159-10.285-29.629 6.183-37.954 28.59-7.203 19.395-35.04 96.542 36.947 180.232 83.331 96.879 208.233 65.02 216.536-1.287 6.998-55.88-26.82-79.506-50.346-93.078-23.238-13.405-67.483-12.88-100.281-26.564-30.038-12.533-49.602-44.685-50.303-58.434-1.169-22.925-10.993-26.713-14.599-29.46z"/></g></g></svg>