<svg id="Слой_1" data-name="Слой 1" xmlns="http://www.w3.org/2000/svg" viewBox="0 0 52.75 52.23"><defs><style>.cls-1{fill:#020202;}.cls-2{fill:#ebebeb;}.cls-3{fill:#3f3d3d;}</style></defs><title>v1</title><path class="cls-1" d="M15.92,25.13l-.06,0a7.37,7.37,0,0,0,.06,1.14c0,.12,0,.24.07.37,0-.46-.05-.91-.06-1.35Z"/><path class="cls-1" d="M16,39.35c2.67-.89,5.19-1.73,5.8-4.67a.33.33,0,0,0,0-.05l.37,0a4,4,0,0,0,.5,0c-.26.86-.5,1.62-.65,2A3.71,3.71,0,0,0,22.29,39a10.9,10.9,0,0,1,.55,2.33L18,46.66a.3.3,0,0,0,.45.41l4.9-5.45a.31.31,0,0,0,.08-.23,11.06,11.06,0,0,0-.58-2.6,3.33,3.33,0,0,1-.28-2c.16-.43.44-1.32.73-2.27h0l.59-1.94c.22-.74.4-1.35.49-1.61l.1-.31c.14-.46.58-1.85.86-1.93.07,0,.08,0,.09,0s.22.37-.2,2-.85,4-.88,4.21l-.26.51a.3.3,0,0,0,.54.28c.45-.89.85-1.76,1.17-2.46s.54-1.17.71-1.48l.18-.31c.75-1.33,1.28-2.29,1.52-2.32s.27.67-.63,2.26a16.37,16.37,0,0,0-1.19,2.74L25.93,36a.25.25,0,0,0,0,0,.3.3,0,0,0,0,.06.29.29,0,0,0,0,.06l0,.05,0,0,0,0,0,0,0,0h.13l.1,0h0l.09-.05,0,0,0-.06h0a22.86,22.86,0,0,1,2.61-4,1.93,1.93,0,0,1,.58-.52.52.52,0,0,1,0,.26l0,.21A6.32,6.32,0,0,1,29,33.32l-.82,1.32-.27.79c-.16.4-.31.82-.44,1.28a.3.3,0,0,0,0,.05.3.3,0,0,0,0,.06.3.3,0,0,0,0,.05.29.29,0,0,0,0,.06l0,0,0,0,.05,0,0,0h.16l.06,0,0,0L28,37l0,0a.3.3,0,0,0,0-.09l.4-1.16a8.26,8.26,0,0,1,1.15-2.13,1.72,1.72,0,0,1,0,.43,5.83,5.83,0,0,1-.22.69,5.15,5.15,0,0,0-.26.86,13.54,13.54,0,0,1-.48,1.86.3.3,0,0,0,0,.11A8.6,8.6,0,0,1,28,41a57.09,57.09,0,0,1-4.9,6.82.3.3,0,1,0,.47.39,57.75,57.75,0,0,0,5-6.92,8.83,8.83,0,0,0,.67-3.73,13.34,13.34,0,0,0,.49-1.92,5.18,5.18,0,0,1,.23-.74h0c.91,3,3.72,4.06,6.44,5,2.9,1,5.91,2.13,6.83,5.66a.36.36,0,0,0,.35.27h.09a.36.36,0,0,0,.26-.44c-1-3.9-4.21-5-7.29-6.16-2.83-1-5.5-2-6.12-5.08,0-.05,0-.1,0-.15a.31.31,0,0,0,0,0,9.49,9.49,0,0,1,0-1.43,6.54,6.54,0,0,0,5.86-4.7,24.18,24.18,0,0,0,1.1-8.55l.42,0h.05a2.45,2.45,0,0,0,2.42-1.48,5.75,5.75,0,0,0,.07-3.38A3.67,3.67,0,0,0,40,13.08a.42.42,0,0,0-.13-.16,11.09,11.09,0,0,0-3.5-5,4.06,4.06,0,0,0-4-.78,4.52,4.52,0,0,0-2.52,3.13c-1-.39-1.79-.68-2.47-.89a9.88,9.88,0,0,0-9,1.66,6.59,6.59,0,0,0-2.29,6,11.45,11.45,0,0,0-.33,6.16,14,14,0,0,1,.14,1.86v.12c0,.44,0,.89.06,1.35a7.56,7.56,0,0,0,.81,3.16c1.55,2.79,2.86,4.26,4.3,4.73l0,0c-.53,2.53-2.75,3.27-5.32,4.13s-5.18,1.72-7,4.35a10.16,10.16,0,0,0-1.24,2.42.36.36,0,0,0,.22.47l.12,0a.36.36,0,0,0,.34-.24,9.44,9.44,0,0,1,1.15-2.24C11,41,13.56,40.16,16,39.35Zm7.19-6.45c0-.22-.06-.44-.09-.61a.48.48,0,0,1,.23-.46.42.42,0,0,1,.18,0l-.19.64ZM18.87,11.62a9.25,9.25,0,0,1,8.34-1.52c.74.23,1.63.56,2.81,1a.36.36,0,0,0,.49-.27,4,4,0,0,1,2.18-3,2.55,2.55,0,0,1,1.06-.17c-1.12,1-.58,4,.24,6.33a.36.36,0,0,0,.34.24l.12,0a.36.36,0,0,0,.22-.47c-.92-2.59-1.11-5-.43-5.56.36-.31,1-.05,1.53.22l.08,0v0l.11.07a10.45,10.45,0,0,1,3.25,4.62.42.42,0,0,0,0,.25c.36.85.3,1.22.25,1.28s0,0-.12,0A4.44,4.44,0,0,1,36.93,12a.43.43,0,0,0-.79.33c.81,1.94,2.21,3.11,3.11,3.22h.16a1,1,0,0,0,.41-.08,4.2,4.2,0,0,1-.19,2.12,1.81,1.81,0,0,1-2,1h-.23c-1.06-.15-2.55-.86-4.39-3.8a.36.36,0,1,0-.62.39c1.4,2.24,2.78,3.53,4.27,4a23,23,0,0,1-1,8.51,5.81,5.81,0,0,1-5.14,4.16,6,6,0,0,1,1.9-3.4c3-2.27,2.83-4.44,2.7-5.05A1.68,1.68,0,0,0,34,22l-.18,0c-.65,0-1.54.7-2.77,1.72-.26.22-.58.49-.83.67,0-5.69-1.41-8.35-4.89-9.13a.36.36,0,0,0-.24,0,20.06,20.06,0,0,1-8.28,1.49A5.77,5.77,0,0,1,18.87,11.62ZM16.65,25.22a15.32,15.32,0,0,0-.15-2.08,17,17,0,0,1-.23-2,10.09,10.09,0,0,1,.1-2.11,9.29,9.29,0,0,1,.38-1.54A20.71,20.71,0,0,0,25.29,16c3.12.75,4.3,3.25,4.2,8.84a.46.46,0,0,0,.25.44c.35.17.71-.11,1.78-1,.64-.53,2-1.62,2.33-1.55.15,0,.41.31.52.83s.26,2.31-2.43,4.31a5.29,5.29,0,0,0-1.53,1.93,5.2,5.2,0,0,0-.44,1.1l-.06.19c-.53-.2-1.09.47-1.28.69a20,20,0,0,0-1.47,2,15.48,15.48,0,0,1,.95-2.06c.91-1.61.86-2.41.67-2.79a.7.7,0,0,0-.27-.3.64.64,0,0,0-.5-.08c-.45.12-.77.7-1.85,2.62l-.18.31c-.16.28-.36.71-.6,1.24.13-.61.28-1.26.43-1.84.37-1.38.39-2.13.08-2.5a.67.67,0,0,0-.6-.23c-.62.06-1,1.05-1.39,2.35l-.09.3-.12.39a1.23,1.23,0,0,0-.5,0l-.11,0,0,0a1.08,1.08,0,0,0-.54,1.1c.07.4.13,1,.18,1.5h0c-1.5.21-3-.47-5.19-4.48a8.81,8.81,0,0,1-.78-4.06Z"/><ellipse class="cls-1" cx="24.58" cy="23.68" rx="0.75" ry="0.76"/><ellipse class="cls-1" cx="17.86" cy="23.68" rx="0.72" ry="0.73"/><path class="cls-1" d="M23.65,22l1.85,0h0a.36.36,0,0,0,0-.73l-1.85,0h0a.36.36,0,0,0,0,.73Z"/><path class="cls-1" d="M18.49,22a.36.36,0,0,0,0-.73H17A.36.36,0,1,0,17,22Z"/><path class="cls-2" d="M27.32,18.13a1.77,1.77,0,0,0-2.88-.56,27.6,27.6,0,0,1-3.95.51c-1.55-.09-3.24-.29-4.14,1a10.1,10.1,0,0,0-.1,2.11,2.17,2.17,0,0,1,.4-.2,1.62,1.62,0,0,1,.67-.23.38.38,0,0,1,.31.09,1.72,1.72,0,0,1,1.7,2,3,3,0,0,1-1.45,2.38.91.91,0,0,1-.68.07,1.54,1.54,0,0,1-.44.09h-.12a8.81,8.81,0,0,0,.78,4.06c2.23,4,3.69,4.7,5.19,4.48h0c0-.47-.11-1.1-.18-1.5a1.08,1.08,0,0,1,.54-1.1l-.06,0a4.23,4.23,0,0,1-2.83-.14.78.78,0,0,1,.42-1.49.49.49,0,0,1,.32.17,4,4,0,0,1,.51.08,2.83,2.83,0,0,0,1,0l.4-.07a.71.71,0,0,1,.86.15.45.45,0,0,1,.12.26c.17.37-.17.81-.58,1a1.23,1.23,0,0,1,.5,0l.12-.39.1-.3c.41-1.3.77-2.3,1.39-2.35a.67.67,0,0,1,.6.23c.31.37.29,1.12-.08,2.5-.15.58-.3,1.23-.43,1.84.24-.53.44-1,.6-1.24l.18-.31c1.08-1.92,1.4-2.5,1.85-2.62a.64.64,0,0,1,.5.08.7.7,0,0,1,.27.3,2.21,2.21,0,0,0,.12-.47A24.41,24.41,0,0,0,27.32,18.13Zm-5.83,9.62a1.21,1.21,0,0,1-.82.32h-.07a1.21,1.21,0,0,1-.85-.42.36.36,0,1,1,.55-.48.49.49,0,0,0,.34.17.49.49,0,0,0,.35-.13.36.36,0,1,1,.49.54Zm5-4.56a3,3,0,0,1-1.17,2.08,1.86,1.86,0,0,1-2.33-1l-.2-.22c-1-1.28-1.34-3.65.84-3.72A3.77,3.77,0,0,1,26,21,2.23,2.23,0,0,1,26.52,23.19Z"/><path class="cls-1" d="M22.77,30.22a3,3,0,0,1-2.16,0,.36.36,0,0,0-.22.7,4.49,4.49,0,0,0,1.33.21,3.12,3.12,0,0,0,1.4-.29.36.36,0,0,0-.34-.64Z"/><path class="cls-1" d="M31.63,26.68a.36.36,0,0,0,.29-.15L33,25.13a.36.36,0,0,0-.58-.44l-1.05,1.4a.36.36,0,0,0,.29.58Z"/><path class="cls-1" d="M23.46,37.7l-.22-.07a.3.3,0,1,0-.18.58l.22.07h.09a.3.3,0,0,0,.09-.59Z"/><path class="cls-1" d="M25,38.51h.08a.3.3,0,0,0,.07-.6l-.66-.17a.3.3,0,0,0-.15.59Z"/><path class="cls-1" d="M26.56,38.95a.3.3,0,0,0,.27-.55l-.33-.16a.3.3,0,0,0-.27.55Z"/><path class="cls-3" d="M11.61,8.77h-.08a.44.44,0,0,1-.32-.13h0a.43.43,0,0,1,0-.61.54.54,0,0,1,.39-.12.53.53,0,0,0,.53-.53h0a.42.42,0,0,1,0,0A.43.43,0,0,1,12.26,7h0a.43.43,0,0,1,.61,0,.54.54,0,0,1,.12.39.53.53,0,0,0,.53.53h.05a.43.43,0,0,1,.34.12h0a.43.43,0,0,1,0,.61.53.53,0,0,1-.35.12h0A.53.53,0,0,0,13,9.3h0a.47.47,0,0,1,0,0,.44.44,0,0,1-.13.34.42.42,0,0,1-.3.12.44.44,0,0,1-.31-.13.43.43,0,0,1-.12-.34V9.3A.53.53,0,0,0,11.61,8.77Z"/><path class="cls-3" d="M40.66,33.84A1.18,1.18,0,1,0,41.84,35,1.19,1.19,0,0,0,40.66,33.84Zm0,.86a.33.33,0,1,1-.33.33A.33.33,0,0,1,40.66,34.7Z"/><path class="cls-3" d="M45.13,10.49h2a.43.43,0,1,1,0,.86h-2a.43.43,0,1,1,0-.86Z"/><path class="cls-3" d="M9.55,28.06a.43.43,0,0,1,0,.86H5.87a.43.43,0,0,1,0-.86Z"/><path class="cls-3" d="M52.75,52.23H0V0H52.75ZM1.19,51H51.56V1.19H1.19Z"/></svg>