<svg id="Слой_1" data-name="Слой 1" xmlns="http://www.w3.org/2000/svg" viewBox="0 0 52.75 52.23"><defs><style>.cls-1{fill:#020202;}.cls-2{fill:#3f3d3d;}</style></defs><title>v1</title><path class="cls-1" d="M24,30.33l-.23,0a.31.31,0,0,0-.34.26.3.3,0,0,0,.26.34l.23,0h0a.3.3,0,0,0,0-.61Z"/><path class="cls-1" d="M25.64,30.86h0a.3.3,0,0,0,0-.61L25,30.2a.31.31,0,0,0-.33.28.3.3,0,0,0,.28.33Z"/><path class="cls-1" d="M27.26,31h.08a.3.3,0,0,0,.08-.6l-.36-.1a.3.3,0,0,0-.38.21.3.3,0,0,0,.21.38Z"/><path class="cls-1" d="M8.49,45.9h.09a.36.36,0,0,0,.35-.27C9.85,42.11,12.86,41,15.76,40s5.88-2.12,6.59-5.62a6.71,6.71,0,0,0,.12-2,.36.36,0,0,0,0-.17,8.18,8.18,0,0,0-.31-1.29,5.19,5.19,0,0,0-.45-1.12,5.27,5.27,0,0,0-1.51-1.91c-2.68-2-2.53-3.81-2.43-4.31s.37-.79.52-.83c.38-.08,1.69,1,2.33,1.55.82.69,1.23,1,1.53,1,.21.6.48,1.65.54,1.9-.12,1-.24,1.84-.32,2.28a3.72,3.72,0,0,0,.67,2.27A10.91,10.91,0,0,1,24,34l-8.7,13.13a.3.3,0,0,0,.09.42.3.3,0,0,0,.42-.09l8.78-13.25a.3.3,0,0,0,0-.24,11.07,11.07,0,0,0-1-2.46A3.33,3.33,0,0,1,23,29.63c.14-.76.39-2.85.58-4.37.09-.77.17-1.4.21-1.67l0-.32c.06-.47.25-1.92.52-2,.06,0,.08,0,.09,0s.28.32.13,2-.15,4.09-.15,4.3l-.16.55a.3.3,0,0,0,.58.18c.29-1,.54-1.88.74-2.63s.33-1.24.45-1.58l.12-.34a7.9,7.9,0,0,1,1.1-2.54s.14.17.15.5a.34.34,0,0,0,0,.06.34.34,0,0,0,0,.05A5.56,5.56,0,0,1,27,23.45a16.33,16.33,0,0,0-.71,2.9l-.15,1.83a.27.27,0,0,0,0,0,.31.31,0,0,0,0,.06l0,.06,0,0,0,0,0,0,.05,0h.18l.06,0,0,0,0,0,0,0,0-.06v0a22.84,22.84,0,0,1,1.89-4.37,2,2,0,0,1,.48-.61.6.6,0,0,1,.08.33,5,5,0,0,1-.44,1.42l-.59,1.45-.13.82a13.48,13.48,0,0,0-.22,1.34,78.79,78.79,0,0,1,0,.11l0,.06,0,0,0,0,0,0L28,29l0,0h.17a.29.29,0,0,0,.16-.18l0,0v0h0l.19-1.2a8.27,8.27,0,0,1,.77-2.29,1.71,1.71,0,0,1,0,.43,5.73,5.73,0,0,1-.1.72,5.15,5.15,0,0,0-.11.89,13.54,13.54,0,0,1-.16,1.92.3.3,0,0,0,0,.11,8.64,8.64,0,0,1,0,3.52C28,36,21.58,49.36,21.52,49.5a.3.3,0,0,0,.55.26c.23-.49,5.06-10.63,7-15.22a4.4,4.4,0,0,0,.95.12,3.43,3.43,0,0,0,1.08-.17l.74,13.76a.3.3,0,0,0,.3.29h0a.3.3,0,0,0,.29-.32l-.75-14a6.14,6.14,0,0,0,1.74-1.52,3.24,3.24,0,0,0-.06.87.3.3,0,0,0,.3.27h0a.3.3,0,0,0,.27-.33,5.71,5.71,0,0,1,.82-2.73.3.3,0,0,0,0-.07c.18-.3.37-.61.55-1a6.3,6.3,0,0,0,.66-2A7.13,7.13,0,0,0,37,26.41c0,.16.08.27.09.31h0c0,.06,0,.12,0,.18L36,28.35a.3.3,0,0,0,.48.37l.8-1a3.87,3.87,0,0,0,.17.39l-.89,1.26a.3.3,0,1,0,.5.35l1-1.41a.3.3,0,0,0,0-.33s-.7-1.18-.22-1.71a2.75,2.75,0,0,1,.48,1.21h0c.08.34.16.73.22,1.12-.08.21-.34.89-.8,1.85-.69,1.42-2.32,4.28-2.91,4.68a1.41,1.41,0,0,1-1.55.15.3.3,0,0,0-.27.55,2.07,2.07,0,0,0,.91.22A2.16,2.16,0,0,0,35,35.65l3.19,12a.3.3,0,0,0,.29.23h.08a.3.3,0,0,0,.22-.37l-2.12-8c2.81.95,5.87,2.14,7.32,6.15a.36.36,0,0,0,.34.24l.12,0a.36.36,0,0,0,.22-.47c-1.65-4.56-5.3-5.77-8.23-6.75l-.92-3.47a29.69,29.69,0,0,0,2.73-4.55c.57-1.19.84-1.94.85-2a.29.29,0,0,0,0-.14c-.05-.35-.13-.79-.23-1.22A5.15,5.15,0,0,0,38.77,25a2.48,2.48,0,0,0-.26-1.62.85.85,0,0,0-.7-.37.76.76,0,0,0-.29,0,.83.83,0,0,0-.73-.45.9.9,0,0,0-.32.08A10.92,10.92,0,0,0,36,17.11a6.58,6.58,0,0,0-2.29-6,9.88,9.88,0,0,0-9-1.66c-.67.21-1.46.5-2.47.89a4.52,4.52,0,0,0-2.52-3.13,4.06,4.06,0,0,0-4,.78c-2.87,2-5,7.44-3.92,10a2.44,2.44,0,0,0,2.42,1.48h0l.43,0a24.17,24.17,0,0,0,1.1,8.55,6.54,6.54,0,0,0,5.85,4.7,9.49,9.49,0,0,1,0,1.43s0,0,0,0,0,.1,0,.15c-.63,3.09-3.3,4.06-6.12,5.08-3.08,1.11-6.27,2.26-7.29,6.16A.36.36,0,0,0,8.49,45.9Zm7-26.71c1.49-.46,2.87-1.75,4.28-4a.36.36,0,0,0-.62-.39c-1.84,2.94-3.33,3.65-4.39,3.8h-.23a1.81,1.81,0,0,1-2-1c-1-2.22,1.07-7.22,3.67-9.07l.11-.07v0l.08,0c.5-.27,1.17-.53,1.53-.22.68.58.5,3-.43,5.56a.36.36,0,0,0,.22.47l.12,0a.36.36,0,0,0,.34-.24c.82-2.3,1.36-5.32.24-6.34a2.55,2.55,0,0,1,1.06.17,4,4,0,0,1,2.18,3,.36.36,0,0,0,.49.27c1.18-.47,2.07-.79,2.81-1a9.25,9.25,0,0,1,8.34,1.52,5.78,5.78,0,0,1,2.07,5.18,20.1,20.1,0,0,1-8.28-1.49.37.37,0,0,0-.24,0c-3.49.78-4.92,3.44-4.9,9.13-.25-.18-.57-.45-.83-.67-1.35-1.12-2.28-1.85-2.95-1.7a1.68,1.68,0,0,0-1.08,1.39c-.13.61-.33,2.78,2.7,5.05a6,6,0,0,1,1.9,3.4,5.8,5.8,0,0,1-5.13-4.16A23,23,0,0,1,15.5,19.19Zm7.21,5.86a.47.47,0,0,1,.15-.5.41.41,0,0,1,.17,0l-.08.67-.06.46C22.84,25.43,22.77,25.22,22.71,25.06ZM27.44,24h.44c-.35.64-.65,1.28-.9,1.86A16.19,16.19,0,0,1,27.44,24Zm7.28,5.41c-2.26,4.07-3.72,4.78-5.39,4.45.13-.32.24-.6.32-.83a5.57,5.57,0,0,0,.22-1.93,5.7,5.7,0,0,0,.63,0,4.1,4.1,0,0,0,1.28-.19.36.36,0,1,0-.23-.69,4.1,4.1,0,0,1-1.73.1c-.05-.54-.13-1-.16-1.11a13.46,13.46,0,0,0,.16-2,5.15,5.15,0,0,1,.1-.77,5.86,5.86,0,0,0,.1-.82c0-.75-.23-1-.44-1.1a3.11,3.11,0,0,0,.21-1c0-.48-.22-.82-.53-.89s-.72.24-.94.54l-.12,0h-.51A6.26,6.26,0,0,0,28,22h.55a.36.36,0,0,0,0-.73h-.56a.89.89,0,0,0-.52-.75.64.64,0,0,0-.5,0c-.42.2-.64.83-1.38,2.9l-.12.34c-.11.31-.23.76-.38,1.32,0-.63.06-1.29.11-1.89.13-1.42,0-2.16-.35-2.48a.67.67,0,0,0-.63-.12c-.6.16-.79,1.21-1,2.56l0,.31-.05.4a1.28,1.28,0,0,0-.45.09c0-5,1.25-7.25,4.2-8a20.78,20.78,0,0,0,8.55,1.5,10.91,10.91,0,0,1,.24,5.63,15.32,15.32,0,0,0-.15,2.08A9.08,9.08,0,0,1,34.72,29.4ZM38,25.64a.54.54,0,0,0-.54.12,1,1,0,0,1,.1-.6.42.42,0,0,1,.37-.17.22.22,0,0,1,.19.08,1.58,1.58,0,0,1,.23.87A.76.76,0,0,0,38,25.64Zm0-2a1.41,1.41,0,0,1,.19.73.88.88,0,0,0-.28,0,1.07,1.07,0,0,0-.64.23,2.3,2.3,0,0,1,.3-.92.28.28,0,0,1,.23-.11A.23.23,0,0,1,38,23.68Zm-1.18-.51c.07,0,.16.12.22.23a5,5,0,0,0-.45,2.42c-.16.29-.29.52-.41.72,0-.44,0-.87.06-1.29s0-.94.07-1.37S36.57,23.18,36.82,23.17Z"/><path class="cls-1" d="M34.64,23.4l-.75,0h0a.36.36,0,0,0,0,.73l.75,0h0a.36.36,0,0,0,0-.73Z"/><path class="cls-1" d="M35.19,21.3H33.66a.36.36,0,0,0,0,.73h1.53a.36.36,0,0,0,0-.73Z"/><path class="cls-1" d="M31.85,27.17a.48.48,0,0,1-.34.17.51.51,0,0,1-.35-.13.36.36,0,0,0-.49.54,1.21,1.21,0,0,0,.82.32h.07a1.21,1.21,0,0,0,.85-.42.36.36,0,0,0-.55-.48Z"/><path class="cls-1" d="M19.25,24.62a.36.36,0,0,0-.07.51l1.05,1.4a.36.36,0,1,0,.58-.44l-1.05-1.4A.36.36,0,0,0,19.25,24.62Z"/><path class="cls-2" d="M44.71,32.62a1.55,1.55,0,1,0,1.55-1.55A1.55,1.55,0,0,0,44.71,32.62Zm1.55-.94a.94.94,0,1,1-.94.94A.94.94,0,0,1,46.26,31.68Z"/><path class="cls-2" d="M39.78,20.37a1.27,1.27,0,1,0,1.27-1.27A1.27,1.27,0,0,0,39.78,20.37Zm1.94,0a.66.66,0,1,1-.66-.66A.67.67,0,0,1,41.72,20.37Z"/><path class="cls-2" d="M12.39,34.45a1.27,1.27,0,1,0-1.27,1.27A1.27,1.27,0,0,0,12.39,34.45Zm-1.27.66a.66.66,0,1,1,.66-.66A.67.67,0,0,1,11.11,35.11Z"/><path class="cls-2" d="M40.26,11.33a1,1,0,1,0-1-1A1,1,0,0,0,40.26,11.33Zm0-1.42a.41.41,0,1,1-.41.41A.41.41,0,0,1,40.26,9.92Z"/><path class="cls-2" d="M5,28.55a1,1,0,1,0-1-1A1,1,0,0,0,5,28.55Zm0-1.42a.41.41,0,1,1-.41.41A.41.41,0,0,1,5,27.13Z"/><path class="cls-2" d="M8.75,22.09a1,1,0,1,0-1-1A1,1,0,0,0,8.75,22.09Zm0-1.42a.41.41,0,1,1-.41.41A.41.41,0,0,1,8.75,20.67Z"/><circle class="cls-2" cx="43.43" cy="15.46" r="0.45"/><circle class="cls-2" cx="11.05" cy="28.05" r="0.45"/><path class="cls-2" d="M52.75,52.23H0V0H52.75ZM1.19,51H51.56V1.19H1.19Z"/></svg>