<svg id="Слой_1" data-name="Слой 1" xmlns="http://www.w3.org/2000/svg" viewBox="0 0 52.75 52.23"><defs><style>.cls-1{fill:#3f3d3d;}.cls-2{fill:#020202;}</style></defs><title>v1</title><path class="cls-1" d="M52.75,52.23H0V0H52.75ZM1.19,51H51.56V1.19H1.19Z"/><circle class="cls-2" cx="22.23" cy="23.85" r="0.72"/><path class="cls-2" d="M23.66,21.56a8.37,8.37,0,0,0-2.52,0,.36.36,0,1,0,.24.69,8.11,8.11,0,0,1,2.19,0h0a.36.36,0,0,0,0-.73Z"/><circle class="cls-2" cx="30.32" cy="23.85" r="0.72"/><path class="cls-2" d="M31.38,22.19a.36.36,0,1,0,.24-.69,8.43,8.43,0,0,0-2.52,0,.36.36,0,0,0,0,.73h0A8.11,8.11,0,0,1,31.38,22.19Z"/><path class="cls-2" d="M27,27.17a1.21,1.21,0,0,1-1.16,0,.36.36,0,1,0-.32.66,2.2,2.2,0,0,0,1,.23,1.71,1.71,0,0,0,.9-.25.36.36,0,0,0-.38-.62Z"/><path class="cls-2" d="M17.82,23.68a.36.36,0,0,0-.15.49,8.07,8.07,0,0,1,.64,1.53.37.37,0,0,0,.36.29h.07a.37.37,0,0,0,.29-.43,8.71,8.71,0,0,0-.71-1.73A.37.37,0,0,0,17.82,23.68Z"/><path class="cls-2" d="M33.88,26H34a.37.37,0,0,0,.36-.29,8,8,0,0,1,.64-1.53.36.36,0,1,0-.64-.34,8.65,8.65,0,0,0-.71,1.73A.37.37,0,0,0,33.88,26Z"/><path class="cls-2" d="M43.58,45.25h.07a.36.36,0,0,0,.29-.43C43,40,39.5,38.93,36.42,38a19,19,0,0,1-2.66-1v-.07c.07-.26.36-1.39.57-2a1.07,1.07,0,0,0-.38-1.2,1.1,1.1,0,0,0-.59-.16l-.05-.41,0-.31c-.17-1.29-.35-2.3-.9-2.52.46-.75,1.07-1.86,1.32-2.33L34,28c.12,0,1.18.23,1.84-2l0-.1c.47-1.54,1-3.12.35-4a1.42,1.42,0,0,0-.87-.59A10.25,10.25,0,0,0,36,18.41a8.34,8.34,0,0,0-1.81-6.5,9,9,0,0,0-3.65-2.48,4.34,4.34,0,0,0-.84-3.76c-1.14-1.31-3.14-1.76-5.92-1.34-2.21.33-3.61,1.14-4.17,2.38A4.2,4.2,0,0,0,20,10.24,8.15,8.15,0,0,0,17.69,13a11.93,11.93,0,0,0-1.15,3.82,11.5,11.5,0,0,0,.2,4.86,1.36,1.36,0,0,0-.19.23c-.6.92-.12,2.5.35,4l0,.1c.55,1.82,1.3,2,1.63,2l0,.28-.05.4a1.09,1.09,0,0,0-.59.16,1.07,1.07,0,0,0-.38,1.2c.21.58.5,1.72.57,2-.12,1-.24,1.84-.32,2.28a3.72,3.72,0,0,0,.67,2.27l.35.71a15.61,15.61,0,0,1-2.35.88C13.89,39,11,39.88,9.61,43.83a.36.36,0,0,0,.22.47l.12,0a.36.36,0,0,0,.34-.24c1.31-3.61,3.87-4.41,6.34-5.19a16.76,16.76,0,0,0,2.43-.9,7.65,7.65,0,0,1,.28.83L12.56,49a.3.3,0,0,0,.09.42.3.3,0,0,0,.42-.09L19.93,39a.3.3,0,0,0,0-.24,11.06,11.06,0,0,0-1-2.46,3.32,3.32,0,0,1-.61-1.88c.14-.77.39-2.86.58-4.38.09-.76.17-1.39.21-1.66l0-.32c.06-.47.25-1.92.52-2,.06,0,.08,0,.09,0s.28.32.13,2-.15,4.08-.15,4.3l-.16.55a.3.3,0,0,0,.58.18c.29-.95.54-1.88.74-2.63s.33-1.24.45-1.58l.12-.34a7.94,7.94,0,0,1,1.1-2.54c.1,0,.38.62-.23,2.34a16.39,16.39,0,0,0-.71,2.9L21.48,33a.27.27,0,0,0,0,0,.29.29,0,0,0,0,.06l0,.06,0,0,0,0,0,0,.05,0h.18l.06,0,0,0,0,0,0,0,0-.06v0A22.73,22.73,0,0,1,24,28.76a2,2,0,0,1,.48-.62.6.6,0,0,1,.08.33,5,5,0,0,1-.44,1.42l-.59,1.45-.13.81a13.55,13.55,0,0,0-.22,1.34.31.31,0,0,0,0,.06.34.34,0,0,0,0,.05l0,.06,0,0,0,0,0,0,.06,0,0,0h.16a.29.29,0,0,0,.17-.19l0,0v0h0l.19-1.2a8.24,8.24,0,0,1,.77-2.29,1.72,1.72,0,0,1,0,.43,5.78,5.78,0,0,1-.1.72,5.15,5.15,0,0,0-.11.89A13.25,13.25,0,0,1,24.41,34a.3.3,0,0,0,0,.11,8.63,8.63,0,0,1,0,3.52c-1.12,3.18-5,11.68-5.07,11.82a.3.3,0,0,0,.14.4.3.3,0,0,0,.13,0,.31.31,0,0,0,.27-.17c.26-.55,4-8.67,5.09-11.88a8.47,8.47,0,0,0,0-3.64,4.31,4.31,0,0,0,1.5.41,1.94,1.94,0,0,0-.11.72,5.91,5.91,0,0,0,.1.82,5.25,5.25,0,0,1,.1.77,13.5,13.5,0,0,0,.16,2,8.82,8.82,0,0,0,0,3.79c1.13,3.19,2.16,7,2.18,7.08a.31.31,0,0,0,.29.21h.09a.3.3,0,0,0,.2-.38c0-.08-1.06-3.9-2.19-7.1a8.63,8.63,0,0,1,0-3.52.3.3,0,0,0,0-.11A13.52,13.52,0,0,1,27.25,37a5.18,5.18,0,0,0-.11-.89,5.74,5.74,0,0,1-.1-.72,1.72,1.72,0,0,1,0-.43,8.13,8.13,0,0,1,.75,2.21l.21,1.29a.3.3,0,0,0,0,.06.29.29,0,0,0,.14.16l0,0h.15l0,0,.06,0,0,0,0,0,0,0,0-.06a.32.32,0,0,0,0-.05.29.29,0,0,0,0-.06,13.51,13.51,0,0,0-.24-1.42l-.13-.8-.57-1.39a5,5,0,0,1-.44-1.41,2.24,2.24,0,0,1,.05-.33s.19,0,.52.61A22.78,22.78,0,0,1,29.74,38v0l0,.06,0,0,.05,0,0,0,.07,0h.18l.05,0,0,0,0,0,0,0,0-.06a.29.29,0,0,0,0-.06.27.27,0,0,0,0,0L30.18,36a16.34,16.34,0,0,0-.71-2.89c-.61-1.72-.33-2.29-.2-2.35a9.75,9.75,0,0,1,1.06,2.56l.12.34c.12.34.27.92.45,1.58s.44,1.68.74,2.63a.3.3,0,0,0,.58-.18l-.16-.55c0-.2,0-2.55-.15-4.3s.09-1.92.13-2,0,0,.08,0c.27.13.46,1.57.52,2l0,.32c0,.27.11.9.21,1.67.18,1.52.43,3.61.58,4.38a3.33,3.33,0,0,1-.61,1.88,11.06,11.06,0,0,0-1,2.46.3.3,0,0,0,0,.22l3.12,6a.3.3,0,0,0,.27.16.3.3,0,0,0,.14,0,.3.3,0,0,0,.13-.41l-3.06-5.86a10.86,10.86,0,0,1,.94-2.22,3.72,3.72,0,0,0,.67-2.27c-.05-.29-.12-.78-.2-1.35a24.61,24.61,0,0,0,2.33.82c3,.95,6.15,1.93,7,6.3A.36.36,0,0,0,43.58,45.25ZM17.26,17a11.23,11.23,0,0,1,1.08-3.6,7.29,7.29,0,0,1,2.58-2.89,7.44,7.44,0,0,1,1.6-.76A.36.36,0,0,0,22.28,9a8.2,8.2,0,0,0-1.71.81A3.44,3.44,0,0,1,20.3,7c.45-1,1.67-1.67,3.62-2,2.49-.38,4.31,0,5.27,1.09a3.64,3.64,0,0,1,.69,3,16.34,16.34,0,0,0-4.11-.72.38.38,0,0,0-.38.34.36.36,0,0,0,.34.38c3.57.19,6.31,1.3,7.94,3.19a7.64,7.64,0,0,1,1.64,6,9,9,0,0,1-.66,2.71c-3.7-4.86-6.14-4.73-8.72-4.59a9.2,9.2,0,0,1-4.49-.57c-.37-.16-.63,0-2.12,2.22l-.34.49a4.17,4.17,0,0,0-.42,1.73c0,.35-.09.7-.15,1a1.32,1.32,0,0,0-1.08-.21A12.37,12.37,0,0,1,17.26,17Zm.81,12.93a.48.48,0,0,1,.15-.5.42.42,0,0,1,.18,0l-.08.66-.06.47C18.19,30.26,18.13,30.05,18.07,29.89Zm11.42,5.63c-.21-.49-.46-1-.75-1.57l.31-.18A16.47,16.47,0,0,1,29.49,35.52Zm.06-5.3a.64.64,0,0,0-.5,0c-.25.09-1,.56-.22,2.83l-.43.26v0c-.15-.26-.61-1-1.17-.89-.31.08-.51.41-.53.89a2.16,2.16,0,0,0,.09.59H26.6a3.89,3.89,0,0,1-1.5-.46,10,10,0,0,0,.08-1.35,5.2,5.2,0,0,1,.1-.76c0-.26.08-.5.1-.7a2.77,2.77,0,0,0,1,.19,2.71,2.71,0,0,0,1.53-.45.36.36,0,1,0-.42-.6,2.1,2.1,0,0,1-2.11.06l-.13,0a.61.61,0,0,0-.33-.38,3.11,3.11,0,0,0,.21-1c0-.48-.22-.82-.53-.89-.57-.15-1,.64-1.17.89a20,20,0,0,0-1.11,2.23,15.51,15.51,0,0,1,.58-2.2c.89-2.51.12-3-.13-3.11a.64.64,0,0,0-.5,0c-.42.2-.64.83-1.38,2.9l-.12.34c-.11.31-.23.76-.38,1.32,0-.63.06-1.29.11-1.89.13-1.42,0-2.16-.35-2.48a.67.67,0,0,0-.63-.12c-.49.13-.7.86-.86,1.86h-.13s-.47,0-.9-1.46l0-.1c-.38-1.24-.85-2.79-.44-3.43a.73.73,0,0,1,.47-.3c.09.15.22.41.31.59.27.55.37.74.54.83a.36.36,0,0,0,.54-.32c0-.49,0-1,0-1.47s.14-.8.2-1.22a6.08,6.08,0,0,1,.27-1.38l.38-.53a20.77,20.77,0,0,1,1.4-1.89A9.94,9.94,0,0,0,26,17.2c2.52-.14,4.7-.25,8.25,4.5,0,.4,0,.81,0,1.21a.36.36,0,0,0,.18.31.37.37,0,0,0,.36,0c.25-.14.29-.45.36-.91,0-.08,0-.18,0-.27a.69.69,0,0,1,.38.27c.41.63-.06,2.19-.44,3.43l0,.1c-.38,1.24-.84,1.47-1,1.45l-.58-.06a.36.36,0,0,0-.36.19s-.94,1.77-1.51,2.66a10.31,10.31,0,0,1-1.24,1.59C30,30.73,29.85,30.37,29.54,30.22Zm1.38,2.9-.24-.67c.2-.2.39-.41.58-.63,0,.3,0,.65,0,1.07.05.59.09,1.26.11,1.89-.15-.56-.27-1-.38-1.32Zm2.68,1.11a.47.47,0,0,1,.15.5c-.06.17-.12.37-.19.59l-.06-.47-.08-.66A.42.42,0,0,1,33.6,34.23Z"/><path class="cls-2" d="M19.35,35.16l-.23,0a.31.31,0,0,0-.34.26.3.3,0,0,0,.26.34l.23,0h0a.3.3,0,0,0,.05-.61Z"/><path class="cls-2" d="M21,35.69h0a.3.3,0,0,0,0-.61L20.36,35a.3.3,0,1,0,0,.61Z"/><path class="cls-2" d="M22.61,35.86h.08a.3.3,0,0,0,.08-.6l-.36-.1a.3.3,0,1,0-.17.58Z"/><path class="cls-2" d="M32.54,40.6l.23,0a.3.3,0,0,0,.26-.34A.3.3,0,0,0,32.7,40l-.23,0a.3.3,0,0,0,0,.61Z"/><path class="cls-2" d="M31.46,39.87l-.68.05a.3.3,0,0,0,0,.61h0l.68-.05a.3.3,0,1,0,0-.61Z"/><path class="cls-2" d="M29.39,40l-.35.1a.3.3,0,0,0,.08.6h.08l.35-.1a.3.3,0,0,0-.17-.58Z"/><path class="cls-1" d="M42.17,8.9h.09a.46.46,0,0,0,.34-.15h0a.46.46,0,0,0,0-.63A.55.55,0,0,0,42.17,8a.57.57,0,0,1-.56-.58h0a.5.5,0,0,0,0-.05A.45.45,0,0,0,41.48,7h0a.46.46,0,0,0-.65,0,.57.57,0,0,0-.13.42.57.57,0,0,1-.56.58h0a.46.46,0,0,0-.37.13h0a.46.46,0,0,0,0,.63.54.54,0,0,0,.38.15h0a.57.57,0,0,1,.56.58h0s0,0,0,0a.47.47,0,0,0,.12.36.46.46,0,0,0,.34.15.46.46,0,0,0,.34-.15.45.45,0,0,0,.12-.34V9.48A.57.57,0,0,1,42.17,8.9Z"/><path class="cls-1" d="M47,33.69a.45.45,0,0,0-.45-.45H44.22a.45.45,0,1,0,0,.91h2.33A.45.45,0,0,0,47,33.69Z"/><path class="cls-1" d="M9.3,29.82h.16a.45.45,0,0,0,.31-.12h0a.46.46,0,0,0,.14-.33A.47.47,0,0,0,9.78,29a.46.46,0,0,0-.36-.13H9.3A1.33,1.33,0,0,1,8,27.58a1.07,1.07,0,0,1,0-.12.46.46,0,0,0-.13-.37h0a.46.46,0,0,0-.65,0,.46.46,0,0,0-.13.37,1.07,1.07,0,0,1,0,.12,1.33,1.33,0,0,1-1.33,1.33H5.61a.46.46,0,0,0-.36.13h0a.46.46,0,0,0-.13.33.47.47,0,0,0,.15.33.45.45,0,0,0,.31.12h.16a1.33,1.33,0,0,1,1.33,1.33,1.07,1.07,0,0,1,0,.12.48.48,0,0,0,.14.37.44.44,0,0,0,.32.13.47.47,0,0,0,.33-.14A.46.46,0,0,0,8,31.27a1.07,1.07,0,0,1,0-.12A1.33,1.33,0,0,1,9.3,29.82Zm-1.78,0a2.26,2.26,0,0,0-.43-.43,2.27,2.27,0,0,0,.43-.43,2.26,2.26,0,0,0,.43.43A2.25,2.25,0,0,0,7.52,29.8Z"/><path class="cls-1" d="M39.51,29.82H43.4a.45.45,0,0,0,0-.91H39.51a.45.45,0,1,0,0,.91Z"/></svg>