<?xml version="1.0" encoding="utf-8"?>
<!-- Generator: Adobe Illustrator 21.1.0, SVG Export Plug-In . SVG Version: 6.00 Build 0)  -->
<svg version="1.1" id="Слой_1" xmlns="http://www.w3.org/2000/svg" xmlns:xlink="http://www.w3.org/1999/xlink" x="0px" y="0px"
	 viewBox="0 0 85.04 85.04" style="enable-background:new 0 0 85.04 85.04;" xml:space="preserve">
<style type="text/css">
	.st0{fill:#ADD9E8;}
	.st1{fill:none;stroke:#13100A;stroke-width:0.3217;stroke-linecap:round;stroke-linejoin:round;stroke-miterlimit:10;}
	.st2{fill:#F7DC00;}
	.st3{fill:none;stroke:#13100A;stroke-width:0.3461;stroke-linecap:round;stroke-linejoin:round;stroke-miterlimit:10;}
	.st4{fill:#BAC870;}
	.st5{fill:none;stroke:#13100A;stroke-width:0.4491;stroke-linecap:round;stroke-linejoin:round;stroke-miterlimit:10;}
	.st6{fill:#E07EB1;}
	.st7{fill:none;stroke:#13100A;stroke-width:0.3094;stroke-linecap:round;stroke-linejoin:round;stroke-miterlimit:10;}
	.st8{fill:none;stroke:#13100A;stroke-linecap:round;stroke-linejoin:round;stroke-miterlimit:10;}
	.st9{fill:#FFFFFF;}
	.st10{fill:#8E1E23;}
	.st11{fill:#EEC624;}
	.st12{fill:#274567;}
	.st13{fill:#667C35;}
	.st14{clip-path:url(#SVGID_2_);}
</style>
<g>
	<path class="st9" d="M65.32,26.83c-3.53,1.61-5.41,4.9-6.78,7.3c-0.58,1.02-1.09,1.91-1.61,2.46c-0.04,0.04-0.08,0.06-0.12,0.09
		c-0.72,3.23-1.61,6.84-2.57,10.15c0.72-0.37,1.53-0.7,2.43-0.95c8.9-9.9,13.11-19.42,13.68-21.25c0.02-0.08,0.04-0.14,0.05-0.19
		c-0.55,0.14-1.69,0.72-2.62,1.2C67.03,26,66.19,26.43,65.32,26.83z"/>
	<path class="st9" d="M51.18,55.34c-0.11,0.22-2.11,4-3.21,6.05c0.81-0.24,1.57-0.45,2.28-0.63c7.71-9.36,10.63-9.83,13.22-10.25
		c0.81-0.13,1.51-0.24,2.33-0.64c1.05-0.52,2.27-0.73,3.29-0.85c-1.07-0.4-2.48-0.89-3.8-1.35c-5.48-1.92-9.3-0.54-11.59,1.02
		C52.87,51.34,52.01,53.7,51.18,55.34z"/>
	<path class="st9" d="M53.75,22.5c-1.35,1.32-3.11,6.14-4.33,9.96c0.17-0.07,0.31-0.07,0.46-0.06c0.18,0.02,0.62,0.14,0.76,0.8
		c0.02,0.11,2.17,11.53,0.28,16.51c-1.39,3.65-2.94,8.19-3.55,9.97c0,0.01-0.01,0.02-0.02,0.04c0,0.02,0,0.03,0,0.05
		c1.1-2.08,2.57-4.84,2.65-5.01c3.29-6.5,7.09-25.15,7.31-27.64c0.11-1.28,0.73-3.98,1.38-6.85c0.44-1.92,0.98-4.35,1.24-5.83
		c-0.59,0.75-1.36,1.83-2.04,2.77C56.49,19.16,54.9,21.38,53.75,22.5z"/>
	<path class="st9" d="M42.9,58.41c0,0.14,0.03,0.66,0.06,1.25c2.35-0.76,3.15-1.89,3.16-1.91c0.14-0.2,0.37-0.3,0.61-0.28
		c0.76-2.21,1.91-5.47,2.96-8.23c1.4-3.69,0.34-11.93-0.19-15.02c-0.78,1.13-2.21,3.89-4.27,8.22
		C42.85,47.42,42.85,55.93,42.9,58.41z"/>
	<path class="st9" d="M18.64,22.58c1.17,5.35,2.74,12.51,6.38,19.14c0.18-2,0.51-4.17,1.03-6.53c0.74-3.36,1.19-5.32,1.51-6.58
		c0.42-1.66,0.6-2.42,1.34-2.35c0.72,0.08,0.73,0.57,0.75,2.94c0.02,2.66,0.07,7.62,1.4,9.28c0.3,0.37,0.6,0.81,0.92,1.29
		c-0.62-5.82-0.47-10.54,0.44-14.1c-0.61-1.1-5.08-8.64-13.67-11.3c-1.35-0.42-2.9-0.9-3.97-1.18c0.7,0.78,1.63,1.87,2.22,3.2
		C17.58,17.73,18.05,19.87,18.64,22.58z"/>
	<path class="st9" d="M27.92,75.15c2.04-0.58,4.74-2.14,7.25-4.19c-0.69-0.54-1.39-1.35-2.02-2.57c-0.35-0.68-0.71-1.32-1.06-1.93
		c-0.46-0.81-0.89-1.58-1.26-2.37c-0.61-0.38-1.37-0.95-2.25-1.67c-1.44,0.08-2.8,0.14-4.11,0.2c-0.71,1.05-1.21,2.2-1.48,3.43
		c-1.5,6.71-1.01,9.01-0.79,9.62C22.97,75.76,25.2,75.91,27.92,75.15z"/>
	<path class="st9" d="M44.41,66.96c1.3-1.45,1.61-5.03,1.64-7.35c-0.73,0.53-1.86,1.13-3.5,1.54c-0.02,0.01-0.04,0.01-0.05,0.01
		c-0.88,0.22-1.91,0.38-3.11,0.45c-3.45,0.19-5.04-3.89-6.1-6.6c-0.26-0.65-0.59-1.5-0.83-1.91c-0.12,0.22-0.3,0.63-0.54,1.41
		c-0.82,2.65-0.99,4.56-0.76,6.17c0,0.01,0,0.01,0,0.02c0.27,1.91,1.1,3.38,2.09,5.11c0.35,0.62,0.72,1.26,1.08,1.97
		c1.94,3.75,4.42,2.75,4.52,2.71c0.01-0.01,0.03-0.01,0.04-0.02C38.91,70.47,42.39,69.22,44.41,66.96z"/>
	<path class="st9" d="M62.07,75.44c0.42-0.08,0.72-0.6,0.89-1.03c1.01-2.46,0.58-7.59-0.82-9.62c-0.05-0.08-0.15-0.22-0.27-0.4
		c-0.41-0.62-1.27-1.91-1.63-2.27c-1.16-1.16-3.23-2.13-13.12,0.91c-0.25,1.82-0.75,3.71-1.74,4.81c-0.4,0.45-0.85,0.86-1.32,1.24
		C51.68,72.44,60.32,75.78,62.07,75.44z"/>
	<path class="st9" d="M27.12,61.18c-2.32-2.04-5.17-4.81-8.09-7.77c-0.45-0.31-4.42-2.8-10.07,1.88c-1.82,1.51-5.18,4.29-5.3,5.03
		c0.07,0.07,0.29,0.2,0.98,0.41C6.7,61.37,13.81,61.85,27.12,61.18z"/>
	<path class="st9" d="M81.17,45.02c1.12-1.09,1.04-1.51,1.03-1.51c-0.01-0.04-0.15-0.1-0.18-0.11c-0.04-0.01-0.09-0.02-0.13-0.04
		c-7.92-3.29-18.37-0.72-21.84,0.58c-0.42,0.51-0.85,1.02-1.3,1.54c1.97-0.2,4.29,0.01,6.95,0.94c5.95,2.08,6.31,2.2,6.21,2.99
		c-0.08,0.66-0.71,0.71-1.75,0.81c-1.04,0.09-2.61,0.24-3.81,0.83c-1,0.49-1.86,0.63-2.7,0.76c-2.23,0.36-4.74,0.77-11.29,8.44
		c0.58-0.12,1.11-0.22,1.62-0.3c0.01-0.01,0.02-0.02,0.03-0.03c0.25-0.19,6.14-4.62,14.62-7.52c7.71-2.64,9.78-4.69,11.97-6.85
		C80.81,45.37,80.99,45.2,81.17,45.02z"/>
	<path class="st9" d="M32.41,43.2c-0.81-1.59-1.64-2.94-2.39-3.89c-1.28-1.61-1.58-4.92-1.66-8.42c-0.37,1.57-0.76,3.34-1.03,4.59
		c-2.91,13.18,0.35,20.32,2.41,23.29c0.07-1.31,0.34-2.82,0.9-4.64c0.47-1.53,0.93-2.48,1.75-2.51c0.95-0.04,1.38,1.08,2.1,2.92
		c0.72,1.85,1.65,4.19,3.09,5.23c-0.46-5.09-2.75-11.79-5.11-16.44C32.45,43.28,32.43,43.24,32.41,43.2z"/>
	<path class="st9" d="M39.81,21.96c-0.17-0.48-0.33-0.96-0.49-1.42c-0.25-0.73-0.5-1.43-0.73-2.11c-0.21-0.62-0.8-2.35-1.19-2.97
		c-0.39,0.62-1,2.46-1.65,4.39c-0.43,1.29-0.98,2.91-1.63,4.73c-1.43,3.99-1.58,10.29-0.44,18.21c2.47,4.92,4.86,11.97,5.26,17.22
		c0,0.04,0.01,0.15,0.03,0.28c0.11,0.01,0.23,0.02,0.34,0.01c0.9-0.05,1.68-0.16,2.37-0.3c-0.03-0.61-0.07-1.37-0.08-1.56
		c-0.05-2.24-0.05-9.23,1.62-14.45l0-0.01c0.06-0.51,0.12-1.04,0.19-1.6C44.22,35.36,41.91,28.06,39.81,21.96
		C39.81,21.97,39.81,21.96,39.81,21.96z"/>
	<path class="st9" d="M49.17,13.91c-0.25-2.01-0.49-3.93-0.75-4.61c-0.5,0.53-1.42,2.1-1.75,2.67c-0.36,0.62-0.75,1.27-1.14,1.94
		c-1.4,2.37-2.99,5.05-4.39,7.89c1.89,5.49,3.9,11.92,3.73,18.35c0.89-1.84,1.6-3.25,2.18-4.33c0.11-0.39,0.63-2.24,1.37-4.52
		c0-0.01,0-0.01,0-0.02c1.39-5.09,1.87-9.27,1.42-12.4C49.56,16.96,49.34,15.27,49.17,13.91z"/>
	<path class="st9" d="M9.27,35.31c-1.8-0.51-3.24-0.95-4.39-1.3c-0.78-0.24-1.5-0.46-2.05-0.61c0.24,0.29,0.52,0.62,0.82,0.97
		c0.66,0.77,1.47,1.72,2.44,2.93c4.45,5.59,17.97,19.9,23.94,24.62c-0.07-0.3-0.14-0.61-0.18-0.92c-1.42-1.49-4.47-5.59-4.94-13.49
		C22.78,44.46,17.21,37.55,9.27,35.31z"/>
</g>
</svg>
