<?xml version="1.0" encoding="utf-8"?>
<!-- Generator: Adobe Illustrator 21.1.0, SVG Export Plug-In . SVG Version: 6.00 Build 0)  -->
<svg version="1.1" id="Слой_1" xmlns="http://www.w3.org/2000/svg" xmlns:xlink="http://www.w3.org/1999/xlink" x="0px" y="0px"
	 viewBox="0 0 85.04 85.04" style="enable-background:new 0 0 85.04 85.04;" xml:space="preserve">
<style type="text/css">
	.st0{fill:#ADD9E8;}
	.st1{fill:none;stroke:#13100A;stroke-width:0.3217;stroke-linecap:round;stroke-linejoin:round;stroke-miterlimit:10;}
	.st2{fill:#F7DC00;}
	.st3{fill:none;stroke:#13100A;stroke-width:0.3461;stroke-linecap:round;stroke-linejoin:round;stroke-miterlimit:10;}
	.st4{fill:#BAC870;}
	.st5{fill:none;stroke:#13100A;stroke-width:0.4491;stroke-linecap:round;stroke-linejoin:round;stroke-miterlimit:10;}
	.st6{fill:#E07EB1;}
	.st7{fill:none;stroke:#13100A;stroke-width:0.3094;stroke-linecap:round;stroke-linejoin:round;stroke-miterlimit:10;}
	.st8{fill:none;stroke:#13100A;stroke-linecap:round;stroke-linejoin:round;stroke-miterlimit:10;}
	.st9{fill:#FFFFFF;}
	.st10{fill:#8E1E23;}
	.st11{fill:#EEC624;}
	.st12{fill:#274567;}
	.st13{fill:#667C35;}
	.st14{clip-path:url(#SVGID_2_);}
</style>
<g>
	<path class="st9" d="M24.08,16.24c-0.09,0.02-0.17,0.02-0.26,0c-2.87-0.54-3.45,0.02-3.56,0.2c-0.32,0.54,0.42,1.95,1.08,2.76
		c0.03,0.04,0.06,0.09,0.08,0.13c1.16,0.46,2.45,1.7,3.91,3.74c1.96,2.74,3.38,3.19,4.53,3.55c2.17,0.68,2.92,1.49,2.9,7.88
		c-0.02,5,1.45,5.48,2.15,5.71c0.33,0.11,0.78,0.25,0.92,0.74c0.21,0.71-0.12,1.11-3.26,4.99c-2.72,3.35-4.9,6.04-5.14,6.89
		c0.61,0.1,2.48-0.27,4.45-0.66c2.36-0.47,3.67-1.81,4.82-2.99c2.46-2.52,4.26-3.78,10.18,1.79c3.96,3.74,6.04,3.31,7.87,2.93
		c2.58-0.54,4.31-0.53,7.22,6.09c1.55,3.55,2.57,4.56,3.15,4.79c0.33,0.13,0.59,0.02,1.03-0.17c0.45-0.2,1.06-0.48,1.74-0.15
		c0.82,0.4,1.57,1.54,2.69,5.83c1.45-0.18,5.56-0.88,10.16-3.49c1.26-0.72,1.44-1.12,1.46-1.26c0.04-0.28-0.47-0.78-0.95-1.25
		c-1.41-1.39-3.77-3.71-0.7-8.28c2.31-3.44,1.12-4.6-0.37-6.06c-1.44-1.41-3.24-3.17-0.72-6.92c1.41-2.11,1.97-3.67,1.71-4.78
		c-0.3-1.27-1.7-2.07-3.48-3.08c-0.73-0.42-1.49-0.85-2.25-1.36c-2.5-1.68-3.82-5.92-4.88-9.32c-0.46-1.48-1.08-3.47-1.5-3.89
		c-2.25,1.12-7.88-1.49-9.01-2.03c-0.14-0.07-0.26-0.19-0.33-0.33c-2.09-4.58-3.33-5.37-3.88-5.43c-0.61-0.07-1.22,0.73-1.82,1.5
		c-0.69,0.89-1.4,1.82-2.43,1.72c-0.83-0.08-1.53-0.79-2.29-2.31l-0.42-0.85c-0.84-1.7-1.46-2.94-1.74-3.16
		c-0.11,0.03-0.34,0.15-0.53,0.25c-0.78,0.41-2.08,1.09-4.54,1.29c-2.93,0.24-6.11-0.87-8.66-1.76c-1.95-0.68-3.97-1.39-4.57-0.94
		c-0.25,0.18-0.27,0.7-0.25,1.1C28.9,15.22,24.13,16.23,24.08,16.24z"/>
	<path class="st9" d="M2.84,76.25c0.03,0.31,0.15,0.35,0.22,0.38c0.73,0.24,3.41-0.74,8.39-6.17l0.78-0.85
		c5.43-5.93,9.71-10.62,12.36-12.28c7.41-4.66,17.76,1.57,27.76,7.6c1.96,1.18,3.98,2.4,5.92,3.5c7.44,4.2,11.21,4.42,12.84,4.14
		l-1.43-0.96c-0.01,0-0.01-0.01-0.01-0.01c-0.06-0.04-0.12-0.1-0.16-0.16c0,0,0,0,0-0.01c-0.05-0.07-0.08-0.14-0.1-0.22c0,0,0,0,0,0
		c-1.12-4.44-1.8-5.35-2.1-5.5c-0.09-0.05-0.28,0.03-0.58,0.17c-0.51,0.23-1.21,0.54-2.08,0.2c-1.25-0.48-2.45-2.18-3.91-5.51
		c-2.6-5.94-3.76-5.7-5.68-5.3c-1.94,0.41-4.61,0.96-9.09-3.27c-5.23-4.93-6.31-3.83-8.25-1.83c-1.23,1.26-2.76,2.83-5.54,3.37
		c-3.79,0.75-5.35,1.05-5.95,0.07c-0.68-1.13,0.59-2.69,5.3-8.51c1.46-1.8,2.46-3.03,2.84-3.61c-1.5-0.53-2.97-1.84-2.96-6.97
		c0.02-5.95-0.56-6.13-1.94-6.57c-1.2-0.38-3.01-0.95-5.23-4.06c-2.35-3.28-3.55-3.44-3.96-3.35c-0.53,0.11-0.83,0.8-0.95,1.16
		c11.37,21.17,3.19,33.81,2.83,34.34c-0.01,0.02-0.03,0.04-0.04,0.05l-0.28,0.33c-3.4,4.13-7.64,9.28-11.74,11.61
		C5.17,70.79,2.69,74.65,2.84,76.25z"/>
</g>
</svg>
