<?xml version="1.0" encoding="utf-8"?>
<!-- Generator: Adobe Illustrator 21.1.0, SVG Export Plug-In . SVG Version: 6.00 Build 0)  -->
<svg version="1.1" id="Слой_1" xmlns="http://www.w3.org/2000/svg" xmlns:xlink="http://www.w3.org/1999/xlink" x="0px" y="0px"
	 viewBox="0 0 85.04 85.04" style="enable-background:new 0 0 85.04 85.04;" xml:space="preserve">
<style type="text/css">
	.st0{fill:#ADD9E8;}
	.st1{fill:none;stroke:#13100A;stroke-width:0.3217;stroke-linecap:round;stroke-linejoin:round;stroke-miterlimit:10;}
	.st2{fill:#F7DC00;}
	.st3{fill:none;stroke:#13100A;stroke-width:0.3461;stroke-linecap:round;stroke-linejoin:round;stroke-miterlimit:10;}
	.st4{fill:#BAC870;}
	.st5{fill:none;stroke:#13100A;stroke-width:0.4491;stroke-linecap:round;stroke-linejoin:round;stroke-miterlimit:10;}
	.st6{fill:#E07EB1;}
	.st7{fill:none;stroke:#13100A;stroke-width:0.3094;stroke-linecap:round;stroke-linejoin:round;stroke-miterlimit:10;}
	.st8{fill:none;stroke:#13100A;stroke-linecap:round;stroke-linejoin:round;stroke-miterlimit:10;}
	.st9{fill:#FFFFFF;}
	.st10{fill:#8E1E23;}
	.st11{fill:#EEC624;}
	.st12{fill:#274567;}
	.st13{fill:#667C35;}
	.st14{clip-path:url(#SVGID_2_);}
</style>
<g>
	<g>
		<path class="st9" d="M37.36,35.26c2.64,0.05,4.4,1.18,4.91,3.22c0.26,1.03,1.37,1.27,3.18,1.54c0.32,0.05,0.63,0.1,0.95,0.16
			c-0.05-0.81,0.02-1.9,0.56-2.89c0.29-0.53,0.68-0.97,1.16-1.33c-1.44-0.73-2.38-1.85-2.91-2.67c-2.34,2.11-6.1,1.72-7.59,1.47
			C37.53,34.93,37.45,35.09,37.36,35.26z"/>
		<path class="st9" d="M44.72,31.54c0.16-0.23,0.43-0.35,0.71-0.32c0.28,0.03,0.52,0.21,0.62,0.47c0.08,0.2,2.04,4.76,7.54,3.05
			c-1.12-2.13-3.04-4.01-5.21-4.92c-4.59-1.91-8.67,0.73-9.64,1.44c-0.11,0.61-0.29,1.29-0.54,2.03
			C39.81,33.53,43.18,33.71,44.72,31.54z"/>
		<path class="st9" d="M33.26,35.29c-0.45,1.51-1.58,6.73,3.02,10.41c0.42,0.34,0.83,0.65,1.23,0.93c0.33-2.2,0.06-3.98-0.85-5.27
			c-1.14-1.63-2.88-1.94-2.89-1.94c-0.28-0.05-0.52-0.25-0.6-0.52c-0.09-0.27-0.01-0.57,0.19-0.77c3.03-3.02,3.82-6.27,4.02-8.02
			C35.64,30.74,34.03,32.73,33.26,35.29z"/>
		<path class="st9" d="M32.6,32.84c-0.34-0.94-1.04-3.04-1.39-5.32c-2.3,0.47-9.7,2.54-8.95,9.64c0.33,3.15,1.28,5.35,2.81,6.53
			c1.45,1.12,2.93,0.91,2.99,0.9c0.22-0.03,0.45,0.03,0.62,0.18c0.17,0.15,0.27,0.36,0.27,0.58c0,4.21,5.2,6.42,5.25,6.45
			c0.04,0.02,0.08,0.04,0.12,0.06c3.93,2.51,6.96,3.32,8.78,2.34c1.37-0.74,1.82-2.36,1.97-3.32c-0.19,0.01-0.37,0.03-0.56,0.03
			c-2.52,0-5.42-1-9.17-4c-4.25-3.4-4.61-8.45-3.53-12.05C32.01,34.14,32.28,33.46,32.6,32.84z"/>
		<path class="st9" d="M19.05,60.5c1.45,0.09,8.26-0.29,13.25-3.76c-0.34-1.38-0.44-2.85-0.27-4.37c-1.7-1.05-4.21-3.11-4.57-6.24
			c-0.4-0.02-0.93-0.09-1.5-0.27c-2.02,0.63-3.77,0.85-5.22,0.85c-3.43,0-5.24-1.24-5.27-1.25c-3.27-2.32-5.04-6.69-4.86-11.99
			c0.04-1.1,0.16-2.19,0.36-3.26c-1.38,1.21-3.22,3.4-3.49,6.62c-0.19,2.27,0.26,3.55,0.65,4.68c0.58,1.66,1.07,3.09-0.76,6.14
			c-1.13,1.88-1.85,4.82-0.5,7.42C8.5,58.19,12.71,60.07,19.05,60.5z"/>
		<path class="st9" d="M33.65,31.16c1.08-1.41,2.43-2.37,3.85-2.69c0.12-0.26,0.39-0.44,0.69-0.44c0.42,0,0.77,0.34,0.77,0.77
			l0,0.12c0,0.11,0,0.24,0,0.4c1.96-1.14,5.75-2.66,10.01-0.89c2.75,1.15,5.16,3.67,6.36,6.45c0.01,0.01,0.02,0.03,0.02,0.04
			c0,0,0,0.01,0,0.01c0.41,0.95,0.67,1.92,0.77,2.89c0,0.05,0,0.1,0.01,0.15c4.59,1.56,7.66,1.14,9.12-1.28
			c2.59-4.29-0.48-13.57-3.73-16.52c-4.8-4.37-10.06-1.82-10.11-1.79c-0.27,0.13-0.59,0.1-0.82-0.09c-2.26-1.81-4.55-2.74-4.58-2.75
			c-3.45-1.35-6.29-1.48-8.44-0.37c-3.28,1.69-4.34,5.92-4.84,7.95C32.11,25.58,33.03,29.19,33.65,31.16z"/>
		<path class="st9" d="M46.7,44.7c0.18,0.11,0.51,0.1,0.94-0.01c0.39-1.02,0.48-1.78,0.24-2.2c-0.34-0.6-1.52-0.78-2.67-0.95
			c-1.74-0.26-3.91-0.59-4.43-2.68c-0.5-1.99-2.81-2.16-4.36-2.04c-0.34,0.5-0.72,1-1.16,1.5c0.8,0.36,1.84,1.01,2.65,2.17
			c0.93,1.33,1.35,3,1.25,4.99C40.91,44.29,43.87,42.93,46.7,44.7z"/>
		<path class="st9" d="M69.95,45.95c1.83-3.51,2.24-6.31,1.22-8.32c-0.89-1.74-2.67-2.48-3.64-2.76c-0.19,0.95-0.5,1.83-0.97,2.6
			c-0.9,1.49-2.58,2.93-5.74,2.93c-1.31,0-2.87-0.25-4.73-0.84c-0.2,1.29-0.78,2.38-1.72,3.18c0.23,0.71,0.47,1.94,0.01,3.23
			c-0.45,1.27-1.46,2.26-3,2.94l-0.29,0.13c-1.47,0.65-2.91,1.29-4.46,1.62c-0.12,1.12-0.62,3.69-2.81,4.88
			c-0.73,0.39-1.56,0.59-2.5,0.59c-2.09,0-4.7-0.99-7.78-2.95c-0.01,0-0.03-0.01-0.04-0.02c-0.21,3.7,1.33,6.15,2.72,7.58
			c1.95,2.01,4.75,3.15,7.14,2.92c2.62-0.26,3.87-0.82,5.45-1.52c1.23-0.55,2.63-1.17,4.92-1.79c1.2-0.33,2.03-0.94,2.54-1.86
			c1.11-2.01,0.28-4.78,0.27-4.8c-0.09-0.29,0-0.61,0.24-0.81c0.23-0.2,0.56-0.24,0.84-0.1C57.89,52.91,64.66,56.07,69.95,45.95z"/>
		<path class="st9" d="M78.02,49.85c3.3-8.79-3.62-17.28-3.69-17.37c-0.17-0.2-0.22-0.48-0.14-0.73c0.03-0.08,2.64-8.21-2.2-13.05
			c-2.42-2.42-3.95-2.9-6.07-3.57c-2.36-0.74-5.29-1.67-10.53-5.41c-2.71-1.93-5.24-2.58-7.51-1.92c-2.94,0.85-4.82,3.67-5.64,5.17
			c1.34,0.16,2.79,0.53,4.34,1.14c0.1,0.04,2.29,0.93,4.61,2.7c1.54-0.59,6.68-2.04,11.36,2.22c2.84,2.58,5.51,9.12,5.17,14.31
			c1.16,0.3,3.58,1.2,4.8,3.6c1.26,2.47,0.85,5.74-1.23,9.72c-2.61,5-5.65,7.07-8.26,7.82c0.33,2.42,0.3,5.23-0.18,8.09
			C67.86,62.38,74.24,59.89,78.02,49.85z"/>
		<path class="st9" d="M50.76,47.51c1.14-0.51,1.87-1.2,2.18-2.05c0.23-0.63,0.19-1.27,0.1-1.76c-1.89,1.25-5.49,3.33-7.14,2.3
			c-2.8-1.75-6.05,0.81-6.93,1.59c4.97,2.96,8.04,1.6,11.51,0.05L50.76,47.51z"/>
		<path class="st9" d="M31.64,71.56c1.11,0.04,2.16,0.09,3.15,0.28c2.23,0.45,3.32,1.62,4.38,2.76c1.38,1.48,2.68,2.88,6.79,2.88
			c4.44,0,8.1-1.64,10.87-4.87c2.27-2.64,3.65-6,4.35-9.38c0-0.04,0.01-0.07,0.02-0.11c0.59-2.93,0.66-5.86,0.34-8.35
			c-1.31,0.15-2.45,0-3.26-0.19c0.17,1.22,0.2,3.06-0.67,4.64c-0.71,1.29-1.88,2.17-3.48,2.6c-2.18,0.59-3.52,1.19-4.7,1.71
			c-1.64,0.73-3.06,1.36-5.92,1.65c-0.25,0.03-0.51,0.04-0.77,0.04c-2.64,0-5.56-1.29-7.62-3.41c-1.01-1.04-1.79-2.24-2.32-3.56
			c-4.76,3.13-10.5,3.68-12.81,3.76C22.84,71.21,27.51,71.4,31.64,71.56z"/>
		<path class="st9" d="M19.51,18.81c-3.05,1.86-5.44,5.49-6.6,9.71c-0.01,0.05-0.02,0.09-0.04,0.14c-0.42,1.56-0.68,3.2-0.73,4.86
			c-0.16,4.78,1.37,8.67,4.22,10.69c0.02,0.02,2.72,1.67,7.66,0.58c-1.8-1.47-2.91-3.97-3.27-7.47C19.85,28.92,28.6,26.51,31.04,26
			c-0.08-1.14-0.04-2.26,0.21-3.26c0.36-1.46,1.08-4.29,2.82-6.54C31.69,15.67,25.81,14.96,19.51,18.81z"/>
		<path class="st9" d="M54.61,37.96c-0.06-0.6-0.19-1.2-0.4-1.79c-1.1,0.36-2.09,0.52-2.98,0.52c-0.34,0-0.67-0.03-0.98-0.07
			c-0.03,0.01-0.06,0.03-0.09,0.04c-0.89,0.26-1.5,0.71-1.86,1.37c-0.51,0.93-0.4,2.07-0.31,2.62c0.51,0.24,0.95,0.58,1.23,1.09
			c0.34,0.6,0.41,1.34,0.23,2.25c1.14-0.55,2.43-1.32,3.56-2.12C54.55,40.84,54.72,39.18,54.61,37.96z"/>
	</g>
</g>
</svg>
